<?xml version="1.0" encoding="utf-8"?>
<!-- Generator: Adobe Illustrator 19.1.0, SVG Export Plug-In . SVG Version: 6.00 Build 0)  -->
<svg version="1.1" id="Layer_1" xmlns="http://www.w3.org/2000/svg" xmlns:xlink="http://www.w3.org/1999/xlink" x="0px" y="0px"
	 viewBox="590 -500 1792 1792" style="enable-background:new 590 -500 1792 1792;" xml:space="preserve">
<style type="text/css">
	.st0{fill:#002E5D;}
</style>
<path class="st0" d="M2190,905c0,80-24.3,143.2-73,189.5s-113.3,69.5-194,69.5h-874c-80.7,0-145.3-23.2-194-69.5
	c-48.7-46.3-73-109.5-73-189.5c0-35.3,1.2-69.8,3.5-103.5s7-70,14-109S815.3,617.3,826,584s25-65.8,43-97.5s38.7-58.7,62-81
	s51.8-40.2,85.5-53.5s70.8-20,111.5-20c6,0,20,7.2,42,21.5s46.8,30.3,74.5,48s63.7,33.7,108,48S1441.3,471,1486,471
	s89.2-7.2,133.5-21.5c44.3-14.3,80.3-30.3,108-48s52.5-33.7,74.5-48s36-21.5,42-21.5c40.7,0,77.8,6.7,111.5,20s62.2,31.2,85.5,53.5
	c23.3,22.3,44,49.3,62,81s32.3,64.2,43,97.5s19.5,69.5,26.5,108.5s11.7,75.3,14,109S2190,869.7,2190,905z M1870,12
	c0,106-37.5,196.5-112.5,271.5S1592,396,1486,396s-196.5-37.5-271.5-112.5S1102,118,1102,12s37.5-196.5,112.5-271.5
	S1380-372,1486-372s196.5,37.5,271.5,112.5S1870-94,1870,12z"/>
</svg>
